<mxfile host="Electron" modified="2023-09-06T06:22:41.583Z" agent="Mozilla/5.0 (X11; Linux x86_64) AppleWebKit/537.36 (KHTML, like Gecko) draw.io/21.5.0 Chrome/112.0.5615.204 Electron/24.5.1 Safari/537.36" etag="CNyh5ApTMpD7v2ppdCyv" version="21.5.0" type="device">
  <diagram name="Page-1" id="3HdvslZvVY760rjLvyFB">
    <mxGraphModel dx="649" dy="406" grid="1" gridSize="10" guides="1" tooltips="1" connect="1" arrows="1" fold="1" page="1" pageScale="1" pageWidth="850" pageHeight="1100" math="0" shadow="0">
      <root>
        <mxCell id="0" />
        <mxCell id="1" parent="0" />
        <mxCell id="Uv95-lgf1UEsDxgXPaeC-5" value="" style="rounded=1;whiteSpace=wrap;html=1;" vertex="1" parent="1">
          <mxGeometry x="40" y="80" width="260" height="180" as="geometry" />
        </mxCell>
        <mxCell id="Uv95-lgf1UEsDxgXPaeC-4" value="" style="ellipse;whiteSpace=wrap;html=1;aspect=fixed;fillColor=#6d8764;strokeColor=none;opacity=60;fontColor=#ffffff;" vertex="1" parent="1">
          <mxGeometry x="70" y="110" width="100" height="100" as="geometry" />
        </mxCell>
        <mxCell id="Uv95-lgf1UEsDxgXPaeC-6" value="" style="ellipse;whiteSpace=wrap;html=1;aspect=fixed;fillColor=#f0a30a;strokeColor=none;shadow=0;opacity=60;fontColor=#000000;" vertex="1" parent="1">
          <mxGeometry x="130" y="110" width="100" height="100" as="geometry" />
        </mxCell>
      </root>
    </mxGraphModel>
  </diagram>
</mxfile>
